<?xml version="1.0" standalone="no"?>
<!DOCTYPE svg PUBLIC "-//W3C//DTD SVG 20010904//EN"
 "http://www.w3.org/TR/2001/REC-SVG-20010904/DTD/svg10.dtd">
<svg version="1.0" xmlns="http://www.w3.org/2000/svg"
 width="512.000000pt" height="512.000000pt" viewBox="0 0 512.000000 512.000000"
 preserveAspectRatio="xMidYMid meet">

<g transform="translate(0.000000,512.000000) scale(0.100000,-0.100000)"
fill="#000000" stroke="none">
<path d="M2350 5110 c-621 -56 -1188 -324 -1616 -762 -197 -202 -343 -407
-469 -663 -176 -355 -259 -716 -259 -1125 0 -313 35 -526 134 -825 211 -632
682 -1167 1295 -1470 355 -176 716 -259 1125 -259 313 0 526 35 825 134 444
148 884 457 1175 825 284 359 469 792 536 1260 24 165 24 505 0 670 -56 386
-192 753 -394 1060 -105 160 -183 257 -316 393 -392 401 -902 660 -1460 743
-151 22 -438 32 -576 19z m525 -1725 c44 -14 105 -40 135 -58 72 -40 200 -169
233 -232 l25 -50 -59 -37 c-33 -21 -64 -38 -68 -38 -5 0 -20 19 -34 43 -50 84
-157 174 -249 209 -108 41 -248 52 -365 28 -218 -45 -401 -238 -469 -495 -28
-105 -26 -295 4 -398 68 -238 236 -423 442 -488 83 -27 228 -29 317 -6 136 36
263 124 334 231 l42 65 69 -35 c37 -19 68 -38 68 -42 0 -22 -66 -115 -116
-165 -114 -112 -243 -178 -414 -213 -394 -79 -773 180 -906 621 -25 81 -28
105 -28 245 0 140 3 164 28 244 95 314 327 534 621 592 111 22 291 12 390 -21z
m1426 19 c46 -8 111 -27 144 -41 66 -27 227 -130 222 -141 -2 -4 -21 -35 -42
-69 l-37 -62 -47 38 c-106 87 -221 129 -375 138 -285 16 -452 -82 -472 -275
-19 -181 70 -265 351 -333 392 -94 492 -131 587 -218 81 -74 110 -141 116
-266 3 -84 1 -110 -18 -164 -67 -199 -241 -303 -535 -318 -257 -13 -494 56
-687 199 l-56 43 26 47 c55 99 51 97 115 45 199 -162 525 -230 758 -158 142
45 208 117 217 240 14 196 -87 274 -479 370 -285 70 -385 109 -466 184 -175
161 -132 503 81 646 60 40 152 78 231 94 93 20 263 21 366 1z m-3051 -18 c307
-130 434 -469 289 -773 -41 -86 -128 -174 -210 -213 -35 -16 -69 -30 -76 -30
-6 0 -14 -4 -18 -9 -3 -5 87 -155 200 -333 l206 -323 -92 -3 c-66 -2 -96 1
-104 10 -7 7 -99 149 -204 316 l-193 302 -249 0 -249 0 -2 -312 -3 -313 -85 0
-85 0 -3 853 -2 853 417 -3 c385 -3 422 -5 463 -22z"/>
<path d="M550 2870 l0 -392 308 4 c296 3 309 4 359 27 142 63 235 257 206 427
-23 133 -101 241 -211 292 l-57 27 -302 3 -303 3 0 -391z"/>
</g>
</svg>
